<?xml version="1.0" standalone="no"?>
<!DOCTYPE svg PUBLIC "-//W3C//DTD SVG 20010904//EN"
 "http://www.w3.org/TR/2001/REC-SVG-20010904/DTD/svg10.dtd">
<svg version="1.0" xmlns="http://www.w3.org/2000/svg"
 width="684.000000pt" height="682.000000pt" viewBox="0 0 684.000000 682.000000"
 preserveAspectRatio="xMidYMid meet">

<g transform="translate(0.000000,682.000000) scale(0.100000,-0.100000)"
fill="#000000" stroke="none">
<path d="M107 6733 c-4 -3 -7 -1504 -7 -3335 l0 -3328 3335 0 3335 0 0 3328 0
3329 -2492 6 c-3145 9 -4163 9 -4171 0z m1653 -848 l0 -815 -810 0 -810 0 0
815 0 815 810 0 810 0 0 -815z m2490 -1260 l0 -415 408 0 409 0 6 -622 c4
-343 7 -894 7 -1225 l0 -603 -400 0 -400 0 0 830 0 830 -415 0 -415 0 0 415 0
415 -825 0 -825 0 0 395 0 395 1225 0 1225 0 0 -415z m2480 -395 l0 -810 -810
0 -810 0 0 395 0 395 415 0 415 0 0 415 0 415 395 0 395 0 0 -810z m-2480
-1660 l0 -810 -810 0 -810 0 0 218 c0 119 -3 484 -7 810 l-6 592 816 0 817 0
0 -810z m2480 -830 l0 -1640 -1640 0 -1640 0 0 809 0 809 830 7 830 7 0 824 0
824 810 0 810 0 0 -1640z m-4140 0 l0 -810 -810 0 -810 0 0 810 0 810 810 0
810 0 0 -810z"/>
</g>
</svg>
